<svg width="126" height="52" viewBox="0 0 126 52" fill="none" xmlns="http://www.w3.org/2000/svg">
<path fill-rule="evenodd" clip-rule="evenodd" d="M18.3314 0.569986C18.6844 0.872353 18.7022 1.62698 18.5986 11.9272C18.5237 19.3638 18.411 23.0516 18.253 23.2396C17.9388 23.6128 16.712 23.8229 15.8156 23.6572C15.3256 23.5664 15.0073 23.346 14.8386 22.9807C14.4643 22.1706 14.4843 0.75393 14.8597 0.447709C15.4814 -0.0595912 17.687 0.018145 18.3314 0.569986ZM28.5096 0.192024C29.5578 0.479402 31.1763 1.91393 31.5829 2.91654C31.9774 3.88917 32.2764 6.39398 32.0868 7.13919C31.8237 8.17328 29.7699 8.69813 28.7484 7.99232C28.3311 7.70409 28.2658 7.46425 28.2658 6.21988C28.2658 4.43351 27.9089 3.82878 26.8546 3.82878C25.4567 3.82878 25.4435 3.90523 25.4435 12.0139C25.4435 18.9615 25.4606 19.2638 25.8777 19.6752C26.1438 19.9377 26.6013 20.1035 27.0594 20.1035C28.1813 20.1035 28.4829 19.5279 28.4829 17.3867C28.4829 15.4382 28.3084 15.1783 27.0007 15.1783C26.2441 15.1783 26.0948 14.8954 26.0948 13.463C26.0948 11.8355 26.3097 11.7282 29.4275 11.7991L32.0651 11.8591V16.0524V20.2455L31.4086 21.2922C31.0475 21.8678 30.343 22.6224 29.8428 22.9691C29.0717 23.5038 28.6744 23.6143 27.2298 23.697C25.2216 23.8116 24.2676 23.4445 23.0123 22.0742C21.6706 20.6093 21.6441 20.4097 21.6441 11.752V3.93585L22.2581 2.70283C22.8881 1.43726 23.7537 0.628016 24.9007 0.232712C25.7496 -0.060019 27.5166 -0.0799347 28.5096 0.192024ZM44.7168 0.481332C45.1098 0.862503 45.364 21.9794 44.9865 22.8783C44.5892 23.8248 42.6476 24.0942 41.696 23.3349C41.1947 22.9349 41.1819 22.8362 41.1122 18.8319C41.0417 14.7872 41.0347 14.7339 40.5222 14.4026C39.7862 13.927 38.8756 14.2572 38.6403 15.0851C38.5422 15.4307 38.4842 17.328 38.5113 19.3013C38.5702 23.5582 38.5357 23.6368 36.5991 23.6368C35.658 23.6368 35.328 23.546 35.087 23.2212C34.8304 22.8749 34.7789 20.9558 34.7789 11.7186C34.7789 -0.931145 34.5826 0.188384 36.8006 0.188384C38.5954 0.188384 38.5782 0.137202 38.5782 5.4843C38.5782 9.77719 38.6051 10.0907 38.9996 10.3761C39.4831 10.7263 40.1681 10.7663 40.6407 10.4721C40.909 10.3048 40.9855 9.41294 41.0749 5.39544L41.1834 0.521588L41.7262 0.239776C42.3621 -0.0902151 44.288 0.0652558 44.7168 0.481332ZM7.74953 0.699537C10.1709 1.83063 11.1505 3.47545 11.2896 6.64366C11.3962 9.06859 11.1937 9.8395 9.97527 11.6449L9.10816 12.9298L10.3578 17.1055C11.8026 21.9331 11.9678 22.8837 11.4377 23.3178C10.8836 23.7713 8.71455 23.6679 8.34547 23.1704C8.01482 22.7244 7.27363 20.3746 6.43236 17.1055C6.1143 15.8689 5.76411 14.6883 5.65426 14.4823C5.4111 14.0255 4.63453 13.9881 4.46453 14.4247C4.3968 14.599 4.32646 16.571 4.30844 18.8069C4.27044 23.5428 4.25004 23.5951 2.41985 23.621C1.49717 23.634 1.23534 23.5492 0.886234 23.1244C0.480034 22.6299 0.467226 22.2265 0.525193 11.7541C0.573824 2.93175 0.640908 0.829954 0.882978 0.542363C1.13156 0.247062 1.63611 0.188815 3.92243 0.190528C6.35312 0.192241 6.78711 0.250056 7.74953 0.699537ZM58.0461 0.542787C58.3515 0.815389 58.4432 1.21176 58.4432 2.26127C58.4432 3.52834 58.4037 3.64012 57.8863 3.83413C57.58 3.94891 56.7554 4.04292 56.0537 4.04292C55.3521 4.04292 54.7177 4.13929 54.6439 4.25706C54.57 4.37484 54.5182 8.65809 54.5284 13.7756L54.547 23.0803L54.0527 23.3428C53.2757 23.7555 51.5801 23.7041 51.124 23.2542C50.7618 22.8968 50.7403 22.2845 50.8007 14.0461C50.8519 7.04604 50.8059 5.10999 50.5782 4.68534C50.3246 4.21231 50.116 4.13757 48.7821 4.04292C47.4432 3.94784 47.2419 3.87546 46.9994 3.4005C46.6673 2.75015 46.6362 1.17043 46.9443 0.602531C47.1571 0.210653 47.4506 0.188384 52.409 0.188384C56.9803 0.188384 57.6998 0.233568 58.0461 0.542787ZM96.8705 2.02314C103.429 3.11483 108.11 6.01109 112.421 11.6449C114.59 14.4787 115.498 16.1586 116.412 19.0328C117.674 22.9953 117.944 24.1086 118.081 25.9086C118.223 27.777 118.088 27.9732 116.979 27.5162C116.287 27.2307 116.197 27.2389 115.851 27.6164C115.544 27.9511 115.175 28.0267 113.851 28.0267C112.637 28.0267 112.057 28.1295 111.551 28.4344C111.178 28.6584 110.451 28.9651 109.934 29.1156C108.899 29.4173 107.648 30.6587 107.402 31.6296C107.322 31.9446 106.657 33.3588 105.924 34.7721L104.591 37.3418L104.632 39.6514C104.686 42.644 104.883 43.2943 106.21 44.8398L107.31 46.1216L106.831 46.5054C105.25 47.7731 99.4052 50.2509 96.8073 50.755C95.1415 51.0783 88.6129 50.8606 86.3898 50.4077C83.7676 49.8734 81.4457 49.1198 79.5977 48.2033C76.4871 46.6606 73.0581 43.7853 71.267 41.2174C69.8611 39.2019 68.2228 35.8107 67.6866 33.8062C64.773 22.9147 66.308 16.2081 73.3028 9.26539C77.8579 4.74466 82.4576 2.40903 88.2078 1.69765C90.2912 1.43983 94.262 1.58908 96.8705 2.02314ZM93.0349 3.5474C92.5058 3.65126 91.3287 4.64402 91.5158 4.82861C91.5825 4.89456 91.9713 4.74466 92.3797 4.49562C93.3608 3.89774 94.2344 3.92386 95.1336 4.57827C95.9942 5.20464 96.0021 5.20656 96.0021 4.80698C96.0021 4.11016 94.1573 3.32705 93.0349 3.5474ZM4.6495 4.00909C4.44065 4.13993 4.38681 4.92304 4.4324 7.16445L4.49297 10.1459L5.29018 10.2115C5.9226 10.2633 6.23653 10.1453 6.8099 9.64014C7.50659 9.0262 7.53524 8.93733 7.60906 7.16617L7.68548 5.32884L6.92518 4.57891C6.16684 3.83092 5.28627 3.61057 4.6495 4.00909ZM83.8178 4.59155C82.8894 4.87358 82.1313 5.42284 82.3597 5.64791C82.4131 5.70059 82.8517 5.5509 83.3345 5.31534C83.8173 5.07979 84.7185 4.82796 85.3373 4.75558C85.956 4.68342 86.514 4.54166 86.5772 4.44058C86.7569 4.15385 84.9304 4.25364 83.8178 4.59155ZM79.1624 6.66615C78.0741 7.39444 77.4634 8.10325 77.2259 8.91463C76.9979 9.69303 77.4771 9.46818 77.9104 8.59342C78.1536 8.10239 78.7297 7.5195 79.3936 7.09293C80.4423 6.41925 80.8502 5.97019 80.4132 5.97019C80.2974 5.97019 79.7345 6.28326 79.1624 6.66615ZM93.2249 6.88029C93.0488 7.08972 93.3349 7.15375 94.5414 7.17409C95.8972 7.19722 96.0338 7.1651 95.6751 6.90642C95.1658 6.53917 93.5264 6.5216 93.2249 6.88029ZM85.0383 7.07773C84.0025 7.27152 83.4296 7.55998 83.6497 7.7769C83.7058 7.83236 84.5297 7.74093 85.4806 7.5739C86.4315 7.40665 87.2337 7.2666 87.2636 7.26253C87.2936 7.25846 87.3179 7.15867 87.3179 7.0409C87.3179 6.78628 86.5277 6.79913 85.0383 7.07773ZM102.443 8.25443C102.092 8.60005 102.371 8.75402 103.347 8.75402C104.031 8.75402 104.763 8.93754 105.453 9.2821C106.678 9.8939 107.027 9.79132 106.128 9.08295C105.159 8.31889 102.894 7.80966 102.443 8.25443ZM92.5284 9.24869C92.5284 9.64678 93.4398 10.3072 94.4604 10.6485C95.4272 10.9719 95.8297 10.9599 96.3388 10.5929C96.7224 10.316 96.6751 10.2913 95.783 10.3046C94.8564 10.3185 94.1102 10.0374 93.0169 9.26218C92.5809 8.95317 92.5284 8.95189 92.5284 9.24869ZM104.043 11.4843C104.047 11.5728 104.462 11.8377 104.965 12.0732C105.556 12.3497 105.996 12.7467 106.206 13.1927C106.57 13.9656 106.857 14.0983 106.857 13.494C106.857 12.9574 106.093 12.0302 105.329 11.6406C104.662 11.3002 104.03 11.2235 104.043 11.4843ZM84.5503 11.9884C84.0429 12.2362 83.3836 12.7253 83.0848 13.0754C82.5382 13.7161 82.3551 14.5358 82.7587 14.5358C82.8782 14.5358 82.9759 14.3945 82.9759 14.2217C82.9759 13.6951 84.4387 12.4285 85.3618 12.1557C85.8408 12.0141 86.2324 11.8173 86.2324 11.7182C86.2324 11.4053 85.5058 11.522 84.5503 11.9884ZM109.68 13.3551C109.68 14.1435 110.556 15.3309 110.957 15.0862C111.061 15.023 111.58 15.3479 112.11 15.8085C113.106 16.6727 113.587 17.7143 113.587 19.0041C113.587 19.3733 113.699 19.6752 113.835 19.6752C114.006 19.6752 114.045 19.2703 113.961 18.3572C113.801 16.625 112.998 15.4464 111.683 15.0153C110.775 14.7176 110.114 13.9386 110.114 13.1673C110.114 12.9917 110.016 12.7884 109.897 12.7156C109.767 12.6368 109.68 12.8951 109.68 13.3551ZM75.2639 13.8399C74.5861 14.5463 74.2068 15.1783 74.4606 15.1783C74.6389 15.1783 75.425 14.3915 76.0116 13.6257C76.479 13.0156 75.8939 13.1833 75.2639 13.8399ZM98.8244 15.6975C98.8244 15.8485 101.279 17.1111 101.38 17.0119C101.567 16.8271 101.163 16.447 100.338 16.0318C99.5602 15.6404 98.8244 15.4778 98.8244 15.6975ZM73.587 16.6288C72.9463 17.3499 72.5549 18.382 72.5549 19.3501C72.5549 20.4112 73.0434 21.8166 73.4122 21.8166C73.7236 21.8166 73.6999 21.5811 73.2924 20.6191C72.8469 19.5675 73.0008 18.3964 73.7266 17.3147C74.2928 16.4706 74.1875 15.9528 73.587 16.6288ZM80.0623 17.216C78.9067 18.0786 78.5443 19.6078 79.1544 21.0479C79.446 21.7363 79.8656 22.1719 80.056 21.9841C80.1062 21.9348 79.9531 21.5194 79.716 21.0607C79.2306 20.1215 79.1657 19.2249 79.5341 18.5458C79.8346 17.9921 80.5986 17.3366 80.9548 17.3267C81.097 17.3229 81.2738 17.2233 81.3476 17.1055C81.5538 16.7762 80.5341 16.864 80.0623 17.216ZM98.2849 17.3145C98.1329 17.5569 98.3294 17.6443 99.4653 17.8398C99.8774 17.9107 100.439 18.1764 100.713 18.4302C101.236 18.915 101.523 18.8799 101.319 18.3561C101.05 17.6629 98.5945 16.8203 98.2849 17.3145ZM108.594 18.2833C108.743 18.46 108.983 18.6045 109.127 18.6045C109.652 18.6045 110.934 20.1324 111.202 21.078C111.507 22.1507 111.851 22.3374 111.851 21.4303C111.851 20.1645 109.853 17.9621 108.705 17.9621C108.391 17.9621 108.371 18.0186 108.594 18.2833ZM81.6891 19.3829C81.2343 19.9532 81.0527 21.0988 81.4561 20.853C81.5755 20.7802 81.6732 20.5947 81.6732 20.441C81.6732 20.287 81.8686 19.9163 82.1074 19.6168C82.3463 19.3174 82.5416 19.0152 82.5416 18.9454C82.5416 18.6392 82.1024 18.8645 81.6891 19.3829ZM89.8639 21.3305C89.7675 22.174 89.6092 22.4584 88.918 23.0308C88.0797 23.725 88.0031 24.1844 88.7955 23.7662C89.7167 23.2798 90.3574 22.2537 90.3574 21.2648C90.3574 20.0054 90.01 20.0517 89.8639 21.3305ZM68.4534 21.3162C67.7599 22.8173 67.9949 26.0994 68.7957 26.0994C69.0367 26.0994 69.0775 25.9969 68.9451 25.7247C68.7085 25.2395 68.7041 22.8239 68.9375 21.656C69.1438 20.6243 68.8637 20.4279 68.4534 21.3162ZM107.509 21.9888C107.509 22.0834 107.851 22.488 108.269 22.8878C108.808 23.403 109.097 23.548 109.261 23.3858C109.425 23.2237 109.253 22.9623 108.668 22.4869C107.839 21.8126 107.509 21.6706 107.509 21.9888ZM114.239 22.5567C114.239 22.7871 115.235 24.0767 115.433 24.1017C115.724 24.1388 115.606 23.7929 115.079 23.0629C114.701 22.5387 114.239 22.2603 114.239 22.5567ZM107.454 24.7257C107.368 24.8107 107.482 25.1786 107.709 25.5433C107.935 25.9082 108.234 26.6284 108.373 27.1438C108.529 27.7228 108.703 28.0049 108.828 27.8817C108.953 27.7586 108.905 27.265 108.702 26.5909C108.351 25.4262 107.712 24.4711 107.454 24.7257ZM105.989 26.2958C105.989 26.4037 106.202 26.9579 106.462 27.5271C106.839 28.3505 106.952 28.4681 107.017 28.1021C107.116 27.5475 106.537 26.0994 106.217 26.0994C106.092 26.0994 105.989 26.1879 105.989 26.2958ZM85.5761 28.055C84.7346 28.6135 84.473 28.6828 83.6272 28.5717C82.7223 28.4529 82.6812 28.4676 83.0716 28.7704C83.8143 29.3467 84.9739 29.1837 85.9248 28.3693C87.0316 27.4218 86.819 27.2301 85.5761 28.055ZM99.2586 29.1919C99.2586 30.3187 98.715 31.0247 97.8474 31.0247C97.5489 31.0247 97.3047 31.1131 97.3047 31.221C97.3047 31.7573 98.565 31.5367 99.3124 30.8694C99.7341 30.4932 99.8578 28.5809 99.4757 28.3479C99.3431 28.267 99.2586 28.5955 99.2586 29.1919ZM16.4636 29.1499C18.835 30.3677 19.9314 32.4978 19.753 35.5398C19.6741 36.8832 19.5172 37.4665 18.9325 38.5909L18.2096 39.9813L18.8809 41.0171C19.7957 42.4292 20.1008 43.7757 19.9557 45.7629C19.8135 47.7082 19.421 48.7125 18.3431 49.8894C16.9458 51.415 16.1998 51.667 12.8156 51.7574L9.8487 51.8366L9.49026 51.2968C9.16591 50.8085 9.1392 49.7091 9.21041 39.8062C9.27728 30.5259 9.33742 28.8235 9.60489 28.6469C9.78292 28.5293 11.1049 28.4685 12.6344 28.5077C15.0779 28.57 15.4593 28.634 16.4636 29.1499ZM26.3813 28.9368C26.8095 29.6319 26.897 50.3556 26.4751 51.1539C26.2265 51.6246 26.0296 51.697 24.8458 51.7529C22.4008 51.8685 22.6211 53.0084 22.6211 40.2405C22.6211 30.4238 22.6608 29.0889 22.9622 28.7914C23.2014 28.5556 23.7194 28.455 24.694 28.455C25.9037 28.455 26.1234 28.5177 26.3813 28.9368ZM39.7866 28.6766C40.1346 28.8604 40.2065 29.133 40.2065 30.2705C40.2065 31.9502 39.8372 32.3095 38.1112 32.3095C36.1269 32.3095 36.235 31.7181 36.3271 42.0604C36.3929 49.4836 36.3542 51.1503 36.1093 51.4417C35.8959 51.6957 35.461 51.7964 34.5768 51.7964C32.4118 51.7964 32.5621 52.5094 32.5883 42.3617C32.6061 35.5246 32.5473 33.3644 32.3328 32.952C32.0857 32.477 31.896 32.4093 30.6526 32.3515C28.7072 32.2613 28.413 31.9648 28.5265 30.2077C28.5828 29.3362 28.7258 28.7841 28.9284 28.6578C29.3709 28.3815 39.2601 28.3989 39.7866 28.6766ZM52.2427 28.7402C52.8124 29.1512 52.9709 31.0545 52.4952 31.7708C52.1446 32.2982 52.081 32.3095 49.4549 32.3095C47.3325 32.3095 46.7161 32.3768 46.5018 32.6316C46.207 32.9819 46.2745 37.5543 46.5817 38.0447C46.6885 38.2149 47.3559 38.3055 48.5064 38.3055C50.8 38.3055 51.0617 38.5158 51.0617 40.3604C51.0617 41.2022 50.9601 41.7713 50.7903 41.8797C50.6411 41.975 49.5908 42.1011 48.4564 42.16L46.3939 42.2671L46.3325 44.8064C46.2917 46.4955 46.3551 47.4454 46.522 47.6437C46.7116 47.869 47.4291 47.9418 49.4599 47.9418C52.7362 47.9418 53.0156 48.1007 53.0156 49.964C53.0156 51.7709 52.94 51.7964 47.5663 51.7964C43.8833 51.7964 43.0347 51.74 42.8167 51.4811C42.4368 51.0295 42.4941 28.8649 42.876 28.6254C43.0197 28.5353 45.097 28.4601 47.4923 28.4582C50.7809 28.4559 51.944 28.5248 52.2427 28.7402ZM73.6404 30.5446C73.6404 32.0776 74.9424 34.6651 75.714 34.6651C76.1432 34.6651 76.1139 34.5638 75.4921 33.9021C74.8733 33.2434 74.0282 31.1675 74.1204 30.5324C74.1549 30.2951 74.0611 30.0598 73.9118 30.0097C73.7355 29.9503 73.6404 30.1377 73.6404 30.5446ZM104.686 30.2651C104.686 30.923 104.162 31.6602 103.462 31.9881C102.586 32.398 102.546 32.5237 103.292 32.5237C104.089 32.5237 105.12 31.4455 105.12 30.6129C105.12 30.2506 105.023 29.954 104.903 29.954C104.784 29.954 104.686 30.094 104.686 30.2651ZM109.028 31.2388C109.028 31.3566 108.952 31.453 108.858 31.453C108.764 31.453 108.515 31.7421 108.303 32.0954C108.091 32.4487 108.018 32.7378 108.14 32.7378C108.262 32.7378 108.479 32.5213 108.623 32.2566C108.766 31.992 108.921 31.886 108.967 32.0211C109.013 32.1562 108.745 32.6935 108.372 33.2151C107.972 33.7749 107.643 34.5518 107.57 35.1103C107.49 35.7159 107.222 36.3093 106.828 36.7568C105.884 37.8301 105.854 38.1387 106.397 41.1936C106.501 41.7812 106.541 42.3799 106.485 42.5245C106.428 42.669 106.588 43.0716 106.839 43.4192C107.09 43.7669 107.356 44.3725 107.431 44.7653L107.567 45.4792L106.76 44.7297C105.422 43.4881 105.284 43.0463 105.255 39.9068C105.23 37.1626 105.243 37.0784 105.836 36.2313C106.169 35.7546 106.539 35.0176 106.658 34.5938C106.776 34.1698 107.002 33.6965 107.158 33.5421C107.315 33.3877 107.568 32.8785 107.721 32.4106C107.874 31.9429 108.096 31.4397 108.215 31.2924C108.472 30.9726 109.028 30.936 109.028 31.2388ZM80.1544 32.0419C80.1566 33.0989 81.7918 34.5231 83.2114 34.7049C84.0638 34.8141 83.9394 34.3873 83.0427 34.125C81.7099 33.7353 81.267 33.4175 80.8011 32.5166C80.3215 31.5892 80.1531 31.4656 80.1544 32.0419ZM125.067 32.7239C125.602 33.9503 125.634 34.5627 125.202 35.3075C125.032 35.6019 124.889 36.108 124.884 36.4317C124.88 36.7555 124.804 37.0305 124.714 37.0423C123.077 37.2607 123.014 37.2388 122.78 36.3737C122.638 35.8508 122.631 35.467 122.76 35.3396C122.889 35.2122 122.736 35.0287 122.347 34.8454C121.756 34.5668 121.338 33.5944 121.809 33.5944C121.929 33.5944 122.009 33.3333 121.987 33.0145C121.951 32.508 122.042 32.4185 122.706 32.3065C123.124 32.2363 123.661 32.0665 123.9 31.9294C124.542 31.5605 124.567 31.5774 125.067 32.7239ZM71.0352 32.7213C71.0352 33.3128 71.2015 33.7565 71.5972 34.2203C72.374 35.1311 72.6984 35.0473 72.1224 34.0845C71.7175 33.4076 71.5664 32.9243 71.4844 32.0419C71.4761 31.9534 71.3717 31.8812 71.2523 31.8812C71.1329 31.8812 71.0352 32.2592 71.0352 32.7213ZM12.9963 32.4524C12.7288 32.7162 12.8328 37.559 13.112 37.8344C13.6002 38.316 14.7919 38.1376 15.4547 37.4838C16.5987 36.3555 16.519 33.6845 15.3136 32.7494C14.7665 32.3247 13.3141 32.1386 12.9963 32.4524ZM123.9 33.5944C123.826 33.7122 123.869 33.8085 123.996 33.8085C124.122 33.8085 124.226 33.7122 124.226 33.5944C124.226 33.4766 124.183 33.3802 124.13 33.3802C124.077 33.3802 123.974 33.4766 123.9 33.5944ZM90.1368 34.9899C89.8546 35.2863 89.2512 35.6388 88.7964 35.7733C88.3413 35.9077 87.9692 36.0988 87.9692 36.1979C87.9692 36.4559 88.7829 36.4204 89.3404 36.1379C89.9279 35.8401 91.0087 34.8602 91.0087 34.625C91.0087 34.3 90.6518 34.4492 90.1368 34.9899ZM124.008 35.9626C124.008 36.0872 124.106 36.1298 124.226 36.057C124.345 35.9842 124.443 35.8823 124.443 35.8302C124.443 35.7782 124.345 35.7358 124.226 35.7358C124.106 35.7358 124.008 35.8379 124.008 35.9626ZM90.6018 36.4814C90.1989 36.7622 89.4911 37.0549 89.0289 37.132C87.9265 37.3157 87.7291 37.6631 88.7271 37.6631C89.7964 37.6631 91.66 36.6896 91.66 36.1309C91.66 35.8435 91.3877 35.9337 90.6018 36.4814ZM100.626 38.0635C100.129 38.9228 99.0328 39.5937 98.1403 39.5856C97.8598 39.583 97.215 39.395 96.7076 39.1678C95.7144 38.7231 95.5164 38.856 96.2272 39.4905C96.9087 40.0989 98.9553 40.1629 99.8576 39.604C100.563 39.1674 101.427 38.011 101.429 37.5024C101.43 37.0067 101.107 37.2326 100.626 38.0635ZM118.999 37.799C119.462 38.3787 119.574 38.8526 119.286 39.0143C118.88 39.2428 117.461 39.3899 117.586 39.1905C117.659 39.0734 117.62 38.9171 117.499 38.843C117.171 38.6432 117.226 38.4331 117.767 37.8172C118.384 37.1146 118.453 37.1136 118.999 37.799ZM79.2851 39.4642C79.2851 40.0704 81.4166 41.4137 81.7918 41.0439C81.8456 40.9906 81.4014 40.6349 80.8046 40.2533C80.2078 39.8719 79.7193 39.4702 79.7193 39.361C79.7193 39.2515 79.6216 39.162 79.5022 39.162C79.3828 39.162 79.2851 39.298 79.2851 39.4642ZM75.4973 39.786C75.209 40.2462 77.291 42.2712 77.6692 41.8979C77.7176 41.8502 77.2814 41.3032 76.7 40.6824C76.0691 40.0094 75.5841 39.6477 75.4973 39.786ZM100.364 41.1728C100.226 41.3366 99.6246 41.678 99.0274 41.9313C98.4304 42.1849 97.9972 42.4808 98.065 42.5891C98.2847 42.9397 100.856 41.7559 101.07 41.2056C101.233 40.7891 100.707 40.7649 100.364 41.1728ZM121.113 41.639C121.31 42.1452 120.848 42.5054 120.435 42.1675C120.251 42.0168 120.101 41.7606 120.101 41.5985C120.101 41.1915 120.952 41.2255 121.113 41.639ZM78.9581 42.1641C78.6088 43.2496 80.2095 44.9047 81.637 44.9336C82.3361 44.9477 82.1215 44.4267 81.3936 44.3415C80.5219 44.2395 79.5022 43.19 79.5022 42.3954C79.5022 41.648 79.1696 41.5067 78.9581 42.1641ZM13.0762 42.36C12.9526 42.5879 12.8515 43.7855 12.8515 45.0216C12.8515 47.7193 13.0497 48.0679 14.4572 47.8461C14.9409 47.7696 15.5066 47.5557 15.7142 47.3703C16.3112 46.8375 16.6086 45.6417 16.4719 44.3241C16.3696 43.3382 16.2283 43.0183 15.6814 42.5348C14.8486 41.7981 13.4326 41.7033 13.0762 42.36ZM120.101 43.7661C120.101 43.9427 120.009 44.0873 119.896 44.0873C119.622 44.0873 119.426 43.7528 119.6 43.5817C119.844 43.3406 120.101 43.435 120.101 43.7661ZM101.918 44.4762C99.8179 45.2209 99.2111 45.5858 100.073 45.5865C100.848 45.5871 104.469 44.2395 104.469 43.9504C104.469 43.568 104.496 43.5624 101.918 44.4762ZM87.535 44.0798C87.535 44.765 90.4677 44.9308 91.6404 44.3117C92.4177 43.9014 92.0156 43.8119 90.7002 44.1023C89.7677 44.3081 89.2968 44.3123 88.6501 44.1213C87.6308 43.82 87.535 43.8166 87.535 44.0798ZM93.7281 44.9331C93.3404 45.6728 93.3226 45.8004 93.6083 45.8004C93.7969 45.8004 94.4823 44.7173 94.4823 44.4192C94.4823 44.0678 94.0147 44.3867 93.7281 44.9331ZM81.8903 46.6495C81.8903 46.763 82.1031 46.9683 82.363 47.1056C82.8992 47.3887 85.7352 47.233 86.0707 46.9022C86.4172 46.5604 85.489 46.4135 84.4439 46.6443C83.8091 46.7848 83.2184 46.787 82.7375 46.651C81.8419 46.3976 81.8903 46.3977 81.8903 46.6495ZM88.8376 47.2938C88.8376 47.9641 92.0254 48.6506 92.927 48.1748C93.7192 47.7566 93.455 47.5268 92.3328 47.6581C91.6216 47.7412 90.9244 47.6666 90.2314 47.4339C89.0267 47.0289 88.8376 47.0099 88.8376 47.2938ZM116.207 47.521C116.764 47.8153 116.738 48.2478 116.138 48.6421C115.87 48.8187 115.406 49.1772 115.107 49.4387C113.957 50.4466 112.779 50.5147 113.023 49.559C113.095 49.2729 113.057 48.9789 112.937 48.9059C112.817 48.8329 112.719 48.4812 112.719 48.1245C112.719 47.4928 112.741 47.4795 113.539 47.6125C113.99 47.6876 114.601 47.654 114.896 47.538C115.601 47.2604 115.71 47.2589 116.207 47.521ZM99.1501 48.0622C98.6724 48.3416 97.8175 48.6879 97.2504 48.8318C95.9348 49.1656 95.8946 49.5429 97.1933 49.3674C98.2512 49.2243 100.778 48.0665 100.778 47.7247C100.778 47.3761 100.072 47.5223 99.1501 48.0622ZM108.715 51.7758C108.505 52.1114 108.228 52.0655 108.074 51.67C107.867 51.1389 108.163 50.8513 108.537 51.2199C108.716 51.3966 108.796 51.6467 108.715 51.7758Z" fill="#F7F7F7"/>
</svg>
