<svg width="125" height="52" viewBox="0 0 125 52" fill="none" xmlns="http://www.w3.org/2000/svg">
<path fill-rule="evenodd" clip-rule="evenodd" d="M17.8314 0.569986C18.1844 0.872353 18.2022 1.62698 18.0986 11.9272C18.0237 19.3638 17.911 23.0516 17.753 23.2396C17.4388 23.6128 16.212 23.8229 15.3156 23.6572C14.8256 23.5664 14.5073 23.346 14.3386 22.9807C13.9643 22.1706 13.9843 0.75393 14.3597 0.447709C14.9814 -0.0595912 17.187 0.018145 17.8314 0.569986ZM28.0096 0.192024C29.0578 0.479402 30.6763 1.91393 31.0829 2.91654C31.4774 3.88917 31.7764 6.39398 31.5868 7.13919C31.3237 8.17328 29.2699 8.69813 28.2484 7.99232C27.8311 7.70409 27.7658 7.46425 27.7658 6.21988C27.7658 4.43351 27.4089 3.82878 26.3546 3.82878C24.9567 3.82878 24.9435 3.90523 24.9435 12.0139C24.9435 18.9615 24.9606 19.2638 25.3777 19.6752C25.6438 19.9377 26.1013 20.1035 26.5594 20.1035C27.6813 20.1035 27.9829 19.5279 27.9829 17.3867C27.9829 15.4382 27.8084 15.1783 26.5007 15.1783C25.7441 15.1783 25.5948 14.8954 25.5948 13.463C25.5948 11.8355 25.8097 11.7282 28.9275 11.7991L31.5651 11.8591V16.0524V20.2455L30.9086 21.2922C30.5475 21.8678 29.843 22.6224 29.3428 22.9691C28.5717 23.5038 28.1744 23.6143 26.7298 23.697C24.7216 23.8116 23.7676 23.4445 22.5123 22.0742C21.1706 20.6093 21.1441 20.4097 21.1441 11.752V3.93585L21.7581 2.70283C22.3881 1.43726 23.2537 0.628016 24.4007 0.232712C25.2496 -0.060019 27.0166 -0.0799347 28.0096 0.192024ZM44.2168 0.481332C44.6098 0.862503 44.864 21.9794 44.4865 22.8783C44.0892 23.8248 42.1476 24.0942 41.196 23.3349C40.6947 22.9349 40.6819 22.8362 40.6122 18.8319C40.5417 14.7872 40.5347 14.7339 40.0222 14.4026C39.2862 13.927 38.3756 14.2572 38.1403 15.0851C38.0422 15.4307 37.9842 17.328 38.0113 19.3013C38.0702 23.5582 38.0357 23.6368 36.0991 23.6368C35.158 23.6368 34.828 23.546 34.587 23.2212C34.3304 22.8749 34.2789 20.9558 34.2789 11.7186C34.2789 -0.931145 34.0826 0.188384 36.3006 0.188384C38.0954 0.188384 38.0782 0.137202 38.0782 5.4843C38.0782 9.77719 38.1051 10.0907 38.4996 10.3761C38.9831 10.7263 39.6681 10.7663 40.1407 10.4721C40.409 10.3048 40.4855 9.41294 40.5749 5.39544L40.6834 0.521588L41.2262 0.239776C41.8621 -0.0902151 43.788 0.0652558 44.2168 0.481332ZM7.24953 0.699537C9.67088 1.83063 10.6505 3.47545 10.7896 6.64366C10.8962 9.06859 10.6937 9.8395 9.47527 11.6449L8.60816 12.9298L9.85781 17.1055C11.3026 21.9331 11.4678 22.8837 10.9377 23.3178C10.3836 23.7713 8.21455 23.6679 7.84547 23.1704C7.51482 22.7244 6.77363 20.3746 5.93236 17.1055C5.6143 15.8689 5.26411 14.6883 5.15426 14.4823C4.9111 14.0255 4.13453 13.9881 3.96453 14.4247C3.8968 14.599 3.82646 16.571 3.80844 18.8069C3.77044 23.5428 3.75004 23.5951 1.91985 23.621C0.997166 23.634 0.735337 23.5492 0.386234 23.1244C-0.0199662 22.6299 -0.032774 22.2265 0.0251926 11.7541C0.0738237 2.93175 0.140908 0.829954 0.382978 0.542363C0.631561 0.247062 1.13611 0.188815 3.42243 0.190528C5.85312 0.192241 6.28711 0.250056 7.24953 0.699537ZM57.5461 0.542787C57.8515 0.815389 57.9432 1.21176 57.9432 2.26127C57.9432 3.52834 57.9037 3.64012 57.3863 3.83413C57.08 3.94891 56.2554 4.04292 55.5537 4.04292C54.8521 4.04292 54.2177 4.13929 54.1439 4.25706C54.07 4.37484 54.0182 8.65809 54.0284 13.7756L54.047 23.0803L53.5527 23.3428C52.7757 23.7555 51.0801 23.7041 50.624 23.2542C50.2618 22.8968 50.2403 22.2845 50.3007 14.0461C50.3519 7.04604 50.3059 5.10999 50.0782 4.68534C49.8246 4.21231 49.616 4.13757 48.2821 4.04292C46.9432 3.94784 46.7419 3.87546 46.4994 3.4005C46.1673 2.75015 46.1362 1.17043 46.4443 0.602531C46.6571 0.210653 46.9506 0.188384 51.909 0.188384C56.4803 0.188384 57.1998 0.233568 57.5461 0.542787ZM96.3705 2.02314C102.929 3.11483 107.61 6.01109 111.921 11.6449C114.09 14.4787 114.998 16.1586 115.912 19.0328C117.174 22.9953 117.444 24.1086 117.581 25.9086C117.723 27.777 117.588 27.9732 116.479 27.5162C115.787 27.2307 115.697 27.2389 115.351 27.6164C115.044 27.9511 114.675 28.0267 113.351 28.0267C112.137 28.0267 111.557 28.1295 111.051 28.4344C110.678 28.6584 109.951 28.9651 109.434 29.1156C108.399 29.4173 107.148 30.6587 106.902 31.6296C106.822 31.9446 106.157 33.3588 105.424 34.7721L104.091 37.3418L104.132 39.6514C104.186 42.644 104.383 43.2943 105.71 44.8398L106.81 46.1216L106.331 46.5054C104.75 47.7731 98.9052 50.2509 96.3073 50.755C94.6415 51.0783 88.1129 50.8606 85.8898 50.4077C83.2676 49.8734 80.9457 49.1198 79.0977 48.2033C75.9871 46.6606 72.5581 43.7853 70.767 41.2174C69.3611 39.2019 67.7228 35.8107 67.1866 33.8062C64.273 22.9147 65.808 16.2081 72.8028 9.26539C77.3579 4.74466 81.9576 2.40903 87.7078 1.69765C89.7912 1.43983 93.762 1.58908 96.3705 2.02314ZM92.5349 3.5474C92.0058 3.65126 90.8287 4.64402 91.0158 4.82861C91.0825 4.89456 91.4713 4.74466 91.8797 4.49562C92.8608 3.89774 93.7344 3.92386 94.6336 4.57827C95.4942 5.20464 95.5021 5.20656 95.5021 4.80698C95.5021 4.11016 93.6573 3.32705 92.5349 3.5474ZM4.1495 4.00909C3.94065 4.13993 3.88681 4.92304 3.9324 7.16445L3.99297 10.1459L4.79018 10.2115C5.4226 10.2633 5.73653 10.1453 6.3099 9.64014C7.00659 9.0262 7.03524 8.93733 7.10906 7.16617L7.18548 5.32884L6.42518 4.57891C5.66684 3.83092 4.78627 3.61057 4.1495 4.00909ZM83.3178 4.59155C82.3894 4.87358 81.6313 5.42284 81.8597 5.64791C81.9131 5.70059 82.3517 5.5509 82.8345 5.31534C83.3173 5.07979 84.2185 4.82796 84.8373 4.75558C85.456 4.68342 86.014 4.54166 86.0772 4.44058C86.2569 4.15385 84.4304 4.25364 83.3178 4.59155ZM78.6624 6.66615C77.5741 7.39444 76.9634 8.10325 76.7259 8.91463C76.4979 9.69303 76.9771 9.46818 77.4104 8.59342C77.6536 8.10239 78.2297 7.5195 78.8936 7.09293C79.9423 6.41925 80.3502 5.97019 79.9132 5.97019C79.7974 5.97019 79.2345 6.28326 78.6624 6.66615ZM92.7249 6.88029C92.5488 7.08972 92.8349 7.15375 94.0414 7.17409C95.3972 7.19722 95.5338 7.1651 95.1751 6.90642C94.6658 6.53917 93.0264 6.5216 92.7249 6.88029ZM84.5383 7.07773C83.5025 7.27152 82.9296 7.55998 83.1497 7.7769C83.2058 7.83236 84.0297 7.74093 84.9806 7.5739C85.9315 7.40665 86.7337 7.2666 86.7636 7.26253C86.7936 7.25846 86.8179 7.15867 86.8179 7.0409C86.8179 6.78628 86.0277 6.79913 84.5383 7.07773ZM101.943 8.25443C101.592 8.60005 101.871 8.75402 102.847 8.75402C103.531 8.75402 104.263 8.93754 104.953 9.2821C106.178 9.8939 106.527 9.79132 105.628 9.08295C104.659 8.31889 102.394 7.80966 101.943 8.25443ZM92.0284 9.24869C92.0284 9.64678 92.9398 10.3072 93.9604 10.6485C94.9272 10.9719 95.3297 10.9599 95.8388 10.5929C96.2224 10.316 96.1751 10.2913 95.283 10.3046C94.3564 10.3185 93.6102 10.0374 92.5169 9.26218C92.0809 8.95317 92.0284 8.95189 92.0284 9.24869ZM103.543 11.4843C103.547 11.5728 103.962 11.8377 104.465 12.0732C105.056 12.3497 105.496 12.7467 105.706 13.1927C106.07 13.9656 106.357 14.0983 106.357 13.494C106.357 12.9574 105.593 12.0302 104.829 11.6406C104.162 11.3002 103.53 11.2235 103.543 11.4843ZM84.0503 11.9884C83.5429 12.2362 82.8836 12.7253 82.5848 13.0754C82.0382 13.7161 81.8551 14.5358 82.2587 14.5358C82.3782 14.5358 82.4759 14.3945 82.4759 14.2217C82.4759 13.6951 83.9387 12.4285 84.8618 12.1557C85.3408 12.0141 85.7324 11.8173 85.7324 11.7182C85.7324 11.4053 85.0058 11.522 84.0503 11.9884ZM109.18 13.3551C109.18 14.1435 110.056 15.3309 110.457 15.0862C110.561 15.023 111.08 15.3479 111.61 15.8085C112.606 16.6727 113.087 17.7143 113.087 19.0041C113.087 19.3733 113.199 19.6752 113.335 19.6752C113.506 19.6752 113.545 19.2703 113.461 18.3572C113.301 16.625 112.498 15.4464 111.183 15.0153C110.275 14.7176 109.614 13.9386 109.614 13.1673C109.614 12.9917 109.516 12.7884 109.397 12.7156C109.267 12.6368 109.18 12.8951 109.18 13.3551ZM74.7639 13.8399C74.0861 14.5463 73.7068 15.1783 73.9606 15.1783C74.1389 15.1783 74.925 14.3915 75.5116 13.6257C75.979 13.0156 75.3939 13.1833 74.7639 13.8399ZM98.3244 15.6975C98.3244 15.8485 100.779 17.1111 100.88 17.0119C101.067 16.8271 100.663 16.447 99.838 16.0318C99.0602 15.6404 98.3244 15.4778 98.3244 15.6975ZM73.087 16.6288C72.4463 17.3499 72.0549 18.382 72.0549 19.3501C72.0549 20.4112 72.5434 21.8166 72.9122 21.8166C73.2236 21.8166 73.1999 21.5811 72.7924 20.6191C72.3469 19.5675 72.5008 18.3964 73.2266 17.3147C73.7928 16.4706 73.6875 15.9528 73.087 16.6288ZM79.5623 17.216C78.4067 18.0786 78.0443 19.6078 78.6544 21.0479C78.946 21.7363 79.3656 22.1719 79.556 21.9841C79.6062 21.9348 79.4531 21.5194 79.216 21.0607C78.7306 20.1215 78.6657 19.2249 79.0341 18.5458C79.3346 17.9921 80.0986 17.3366 80.4548 17.3267C80.597 17.3229 80.7738 17.2233 80.8476 17.1055C81.0538 16.7762 80.0341 16.864 79.5623 17.216ZM97.7849 17.3145C97.6329 17.5569 97.8294 17.6443 98.9653 17.8398C99.3774 17.9107 99.9388 18.1764 100.213 18.4302C100.736 18.915 101.023 18.8799 100.819 18.3561C100.55 17.6629 98.0945 16.8203 97.7849 17.3145ZM108.094 18.2833C108.243 18.46 108.483 18.6045 108.627 18.6045C109.152 18.6045 110.434 20.1324 110.702 21.078C111.007 22.1507 111.351 22.3374 111.351 21.4303C111.351 20.1645 109.353 17.9621 108.205 17.9621C107.891 17.9621 107.871 18.0186 108.094 18.2833ZM81.1891 19.3829C80.7343 19.9532 80.5527 21.0988 80.9561 20.853C81.0755 20.7802 81.1732 20.5947 81.1732 20.441C81.1732 20.287 81.3686 19.9163 81.6074 19.6168C81.8463 19.3174 82.0416 19.0152 82.0416 18.9454C82.0416 18.6392 81.6024 18.8645 81.1891 19.3829ZM89.3639 21.3305C89.2675 22.174 89.1092 22.4584 88.418 23.0308C87.5797 23.725 87.5031 24.1844 88.2955 23.7662C89.2167 23.2798 89.8574 22.2537 89.8574 21.2648C89.8574 20.0054 89.51 20.0517 89.3639 21.3305ZM67.9534 21.3162C67.2599 22.8173 67.4949 26.0994 68.2957 26.0994C68.5367 26.0994 68.5775 25.9969 68.4451 25.7247C68.2085 25.2395 68.2041 22.8239 68.4375 21.656C68.6438 20.6243 68.3637 20.4279 67.9534 21.3162ZM107.009 21.9888C107.009 22.0834 107.351 22.488 107.769 22.8878C108.308 23.403 108.597 23.548 108.761 23.3858C108.925 23.2237 108.753 22.9623 108.168 22.4869C107.339 21.8126 107.009 21.6706 107.009 21.9888ZM113.739 22.5567C113.739 22.7871 114.735 24.0767 114.933 24.1017C115.224 24.1388 115.106 23.7929 114.579 23.0629C114.201 22.5387 113.739 22.2603 113.739 22.5567ZM106.954 24.7257C106.868 24.8107 106.982 25.1786 107.209 25.5433C107.435 25.9082 107.734 26.6284 107.873 27.1438C108.029 27.7228 108.203 28.0049 108.328 27.8817C108.453 27.7586 108.405 27.265 108.202 26.5909C107.851 25.4262 107.212 24.4711 106.954 24.7257ZM105.489 26.2958C105.489 26.4037 105.702 26.9579 105.962 27.5271C106.339 28.3505 106.452 28.4681 106.517 28.1021C106.616 27.5475 106.037 26.0994 105.717 26.0994C105.592 26.0994 105.489 26.1879 105.489 26.2958ZM85.0761 28.055C84.2346 28.6135 83.973 28.6828 83.1272 28.5717C82.2223 28.4529 82.1812 28.4676 82.5716 28.7704C83.3143 29.3467 84.4739 29.1837 85.4248 28.3693C86.5316 27.4218 86.319 27.2301 85.0761 28.055ZM98.7586 29.1919C98.7586 30.3187 98.215 31.0247 97.3474 31.0247C97.0489 31.0247 96.8047 31.1131 96.8047 31.221C96.8047 31.7573 98.065 31.5367 98.8124 30.8694C99.2341 30.4932 99.3578 28.5809 98.9757 28.3479C98.8431 28.267 98.7586 28.5955 98.7586 29.1919ZM15.9636 29.1499C18.335 30.3677 19.4314 32.4978 19.253 35.5398C19.1741 36.8832 19.0172 37.4665 18.4325 38.5909L17.7096 39.9813L18.3809 41.0171C19.2957 42.4292 19.6008 43.7757 19.4557 45.7629C19.3135 47.7082 18.921 48.7125 17.8431 49.8894C16.4458 51.415 15.6998 51.667 12.3156 51.7574L9.3487 51.8366L8.99026 51.2968C8.66591 50.8085 8.6392 49.7091 8.71041 39.8062C8.77728 30.5259 8.83742 28.8235 9.10489 28.6469C9.28292 28.5293 10.6049 28.4685 12.1344 28.5077C14.5779 28.57 14.9593 28.634 15.9636 29.1499ZM25.8813 28.9368C26.3095 29.6319 26.397 50.3556 25.9751 51.1539C25.7265 51.6246 25.5296 51.697 24.3458 51.7529C21.9008 51.8685 22.1211 53.0084 22.1211 40.2405C22.1211 30.4238 22.1608 29.0889 22.4622 28.7914C22.7014 28.5556 23.2194 28.455 24.194 28.455C25.4037 28.455 25.6234 28.5177 25.8813 28.9368ZM39.2866 28.6766C39.6346 28.8604 39.7065 29.133 39.7065 30.2705C39.7065 31.9502 39.3372 32.3095 37.6112 32.3095C35.6269 32.3095 35.735 31.7181 35.8271 42.0604C35.8929 49.4836 35.8542 51.1503 35.6093 51.4417C35.3959 51.6957 34.961 51.7964 34.0768 51.7964C31.9118 51.7964 32.0621 52.5094 32.0883 42.3617C32.1061 35.5246 32.0473 33.3644 31.8328 32.952C31.5857 32.477 31.396 32.4093 30.1526 32.3515C28.2072 32.2613 27.913 31.9648 28.0265 30.2077C28.0828 29.3362 28.2258 28.7841 28.4284 28.6578C28.8709 28.3815 38.7601 28.3989 39.2866 28.6766ZM51.7427 28.7402C52.3124 29.1512 52.4709 31.0545 51.9952 31.7708C51.6446 32.2982 51.581 32.3095 48.9549 32.3095C46.8325 32.3095 46.2161 32.3768 46.0018 32.6316C45.707 32.9819 45.7745 37.5543 46.0817 38.0447C46.1885 38.2149 46.8559 38.3055 48.0064 38.3055C50.3 38.3055 50.5617 38.5158 50.5617 40.3604C50.5617 41.2022 50.4601 41.7713 50.2903 41.8797C50.1411 41.975 49.0908 42.1011 47.9564 42.16L45.8939 42.2671L45.8325 44.8064C45.7917 46.4955 45.8551 47.4454 46.022 47.6437C46.2116 47.869 46.9291 47.9418 48.9599 47.9418C52.2362 47.9418 52.5156 48.1007 52.5156 49.964C52.5156 51.7709 52.44 51.7964 47.0663 51.7964C43.3833 51.7964 42.5347 51.74 42.3167 51.4811C41.9368 51.0295 41.9941 28.8649 42.376 28.6254C42.5197 28.5353 44.597 28.4601 46.9923 28.4582C50.2809 28.4559 51.444 28.5248 51.7427 28.7402ZM73.1404 30.5446C73.1404 32.0776 74.4424 34.6651 75.214 34.6651C75.6432 34.6651 75.6139 34.5638 74.9921 33.9021C74.3733 33.2434 73.5282 31.1675 73.6204 30.5324C73.6549 30.2951 73.5611 30.0598 73.4118 30.0097C73.2355 29.9503 73.1404 30.1377 73.1404 30.5446ZM104.186 30.2651C104.186 30.923 103.662 31.6602 102.962 31.9881C102.086 32.398 102.046 32.5237 102.792 32.5237C103.589 32.5237 104.62 31.4455 104.62 30.6129C104.62 30.2506 104.523 29.954 104.403 29.954C104.284 29.954 104.186 30.094 104.186 30.2651ZM108.528 31.2388C108.528 31.3566 108.452 31.453 108.358 31.453C108.264 31.453 108.015 31.7421 107.803 32.0954C107.591 32.4487 107.518 32.7378 107.64 32.7378C107.762 32.7378 107.979 32.5213 108.123 32.2566C108.266 31.992 108.421 31.886 108.467 32.0211C108.513 32.1562 108.245 32.6935 107.872 33.2151C107.472 33.7749 107.143 34.5518 107.07 35.1103C106.99 35.7159 106.722 36.3093 106.328 36.7568C105.384 37.8301 105.354 38.1387 105.897 41.1936C106.001 41.7812 106.041 42.3799 105.985 42.5245C105.928 42.669 106.088 43.0716 106.339 43.4192C106.59 43.7669 106.856 44.3725 106.931 44.7653L107.067 45.4792L106.26 44.7297C104.922 43.4881 104.784 43.0463 104.755 39.9068C104.73 37.1626 104.743 37.0784 105.336 36.2313C105.669 35.7546 106.039 35.0176 106.158 34.5938C106.276 34.1698 106.502 33.6965 106.658 33.5421C106.815 33.3877 107.068 32.8785 107.221 32.4106C107.374 31.9429 107.596 31.4397 107.715 31.2924C107.972 30.9726 108.528 30.936 108.528 31.2388ZM79.6544 32.0419C79.6566 33.0989 81.2918 34.5231 82.7114 34.7049C83.5638 34.8141 83.4394 34.3873 82.5427 34.125C81.2099 33.7353 80.767 33.4175 80.3011 32.5166C79.8215 31.5892 79.6531 31.4656 79.6544 32.0419ZM124.567 32.7239C125.102 33.9503 125.134 34.5627 124.702 35.3075C124.532 35.6019 124.389 36.108 124.384 36.4317C124.38 36.7555 124.304 37.0305 124.214 37.0423C122.577 37.2607 122.514 37.2388 122.28 36.3737C122.138 35.8508 122.131 35.467 122.26 35.3396C122.389 35.2122 122.236 35.0287 121.847 34.8454C121.256 34.5668 120.838 33.5944 121.309 33.5944C121.429 33.5944 121.509 33.3333 121.487 33.0145C121.451 32.508 121.542 32.4185 122.206 32.3065C122.624 32.2363 123.161 32.0665 123.4 31.9294C124.042 31.5605 124.067 31.5774 124.567 32.7239ZM70.5352 32.7213C70.5352 33.3128 70.7015 33.7565 71.0972 34.2203C71.874 35.1311 72.1984 35.0473 71.6224 34.0845C71.2175 33.4076 71.0664 32.9243 70.9844 32.0419C70.9761 31.9534 70.8717 31.8812 70.7523 31.8812C70.6329 31.8812 70.5352 32.2592 70.5352 32.7213ZM12.4963 32.4524C12.2288 32.7162 12.3328 37.559 12.612 37.8344C13.1002 38.316 14.2919 38.1376 14.9547 37.4838C16.0987 36.3555 16.019 33.6845 14.8136 32.7494C14.2665 32.3247 12.8141 32.1386 12.4963 32.4524ZM123.4 33.5944C123.326 33.7122 123.369 33.8085 123.496 33.8085C123.622 33.8085 123.726 33.7122 123.726 33.5944C123.726 33.4766 123.683 33.3802 123.63 33.3802C123.577 33.3802 123.474 33.4766 123.4 33.5944ZM89.6368 34.9899C89.3546 35.2863 88.7512 35.6388 88.2964 35.7733C87.8413 35.9077 87.4692 36.0988 87.4692 36.1979C87.4692 36.4559 88.2829 36.4204 88.8404 36.1379C89.4279 35.8401 90.5087 34.8602 90.5087 34.625C90.5087 34.3 90.1518 34.4492 89.6368 34.9899ZM123.508 35.9626C123.508 36.0872 123.606 36.1298 123.726 36.057C123.845 35.9842 123.943 35.8823 123.943 35.8302C123.943 35.7782 123.845 35.7358 123.726 35.7358C123.606 35.7358 123.508 35.8379 123.508 35.9626ZM90.1018 36.4814C89.6989 36.7622 88.9911 37.0549 88.5289 37.132C87.4265 37.3157 87.2291 37.6631 88.2271 37.6631C89.2964 37.6631 91.16 36.6896 91.16 36.1309C91.16 35.8435 90.8877 35.9337 90.1018 36.4814ZM100.126 38.0635C99.6288 38.9228 98.5328 39.5937 97.6403 39.5856C97.3598 39.583 96.715 39.395 96.2076 39.1678C95.2144 38.7231 95.0164 38.856 95.7272 39.4905C96.4087 40.0989 98.4553 40.1629 99.3576 39.604C100.063 39.1674 100.927 38.011 100.929 37.5024C100.93 37.0067 100.607 37.2326 100.126 38.0635ZM118.499 37.799C118.962 38.3787 119.074 38.8526 118.786 39.0143C118.38 39.2428 116.961 39.3899 117.086 39.1905C117.159 39.0734 117.12 38.9171 116.999 38.843C116.671 38.6432 116.726 38.4331 117.267 37.8172C117.884 37.1146 117.953 37.1136 118.499 37.799ZM78.7851 39.4642C78.7851 40.0704 80.9166 41.4137 81.2918 41.0439C81.3456 40.9906 80.9014 40.6349 80.3046 40.2533C79.7078 39.8719 79.2193 39.4702 79.2193 39.361C79.2193 39.2515 79.1216 39.162 79.0022 39.162C78.8828 39.162 78.7851 39.298 78.7851 39.4642ZM74.9973 39.786C74.709 40.2462 76.791 42.2712 77.1692 41.8979C77.2176 41.8502 76.7814 41.3032 76.2 40.6824C75.5691 40.0094 75.0841 39.6477 74.9973 39.786ZM99.8639 41.1728C99.726 41.3366 99.1246 41.678 98.5274 41.9313C97.9304 42.1849 97.4972 42.4808 97.565 42.5891C97.7847 42.9397 100.356 41.7559 100.57 41.2056C100.733 40.7891 100.207 40.7649 99.8639 41.1728ZM120.613 41.639C120.81 42.1452 120.348 42.5054 119.935 42.1675C119.751 42.0168 119.601 41.7606 119.601 41.5985C119.601 41.1915 120.452 41.2255 120.613 41.639ZM78.4581 42.1641C78.1088 43.2496 79.7095 44.9047 81.137 44.9336C81.8361 44.9477 81.6215 44.4267 80.8936 44.3415C80.0219 44.2395 79.0022 43.19 79.0022 42.3954C79.0022 41.648 78.6696 41.5067 78.4581 42.1641ZM12.5762 42.36C12.4526 42.5879 12.3515 43.7855 12.3515 45.0216C12.3515 47.7193 12.5497 48.0679 13.9572 47.8461C14.4409 47.7696 15.0066 47.5557 15.2142 47.3703C15.8112 46.8375 16.1086 45.6417 15.9719 44.3241C15.8696 43.3382 15.7283 43.0183 15.1814 42.5348C14.3486 41.7981 12.9326 41.7033 12.5762 42.36ZM119.601 43.7661C119.601 43.9427 119.509 44.0873 119.396 44.0873C119.122 44.0873 118.926 43.7528 119.1 43.5817C119.344 43.3406 119.601 43.435 119.601 43.7661ZM101.418 44.4762C99.3179 45.2209 98.7111 45.5858 99.5727 45.5865C100.348 45.5871 103.969 44.2395 103.969 43.9504C103.969 43.568 103.996 43.5624 101.418 44.4762ZM87.035 44.0798C87.035 44.765 89.9677 44.9308 91.1404 44.3117C91.9177 43.9014 91.5156 43.8119 90.2002 44.1023C89.2677 44.3081 88.7968 44.3123 88.1501 44.1213C87.1308 43.82 87.035 43.8166 87.035 44.0798ZM93.2281 44.9331C92.8404 45.6728 92.8226 45.8004 93.1083 45.8004C93.2969 45.8004 93.9823 44.7173 93.9823 44.4192C93.9823 44.0678 93.5147 44.3867 93.2281 44.9331ZM81.3903 46.6495C81.3903 46.763 81.6031 46.9683 81.863 47.1056C82.3992 47.3887 85.2352 47.233 85.5707 46.9022C85.9172 46.5604 84.989 46.4135 83.9439 46.6443C83.3091 46.7848 82.7184 46.787 82.2375 46.651C81.3419 46.3976 81.3903 46.3977 81.3903 46.6495ZM88.3376 47.2938C88.3376 47.9641 91.5254 48.6506 92.427 48.1748C93.2192 47.7566 92.955 47.5268 91.8328 47.6581C91.1216 47.7412 90.4244 47.6666 89.7314 47.4339C88.5267 47.0289 88.3376 47.0099 88.3376 47.2938ZM115.707 47.521C116.264 47.8153 116.238 48.2478 115.638 48.6421C115.37 48.8187 114.906 49.1772 114.607 49.4387C113.457 50.4466 112.279 50.5147 112.523 49.559C112.595 49.2729 112.557 48.9789 112.437 48.9059C112.317 48.8329 112.219 48.4812 112.219 48.1245C112.219 47.4928 112.241 47.4795 113.039 47.6125C113.49 47.6876 114.101 47.654 114.396 47.538C115.101 47.2604 115.21 47.2589 115.707 47.521ZM98.6501 48.0622C98.1724 48.3416 97.3175 48.6879 96.7504 48.8318C95.4348 49.1656 95.3946 49.5429 96.6933 49.3674C97.7512 49.2243 100.278 48.0665 100.278 47.7247C100.278 47.3761 99.5723 47.5223 98.6501 48.0622ZM108.215 51.7758C108.005 52.1114 107.728 52.0655 107.574 51.67C107.367 51.1389 107.663 50.8513 108.037 51.2199C108.216 51.3966 108.296 51.6467 108.215 51.7758Z" fill="#F7F7F7"/>
</svg>
