<svg width="272" height="40" viewBox="0 0 272 40" fill="none" xmlns="http://www.w3.org/2000/svg">
  <g clip-path="url(#clip0_1421_4289)">
    <rect width="6" height="40" rx="3" fill="#C7C7C7" />
    <rect x="7" width="6" height="40" rx="3" fill="#C7C7C7" />
    <rect x="14" width="6" height="40" rx="3" fill="#C7C7C7" />
    <rect x="21" width="6" height="40" rx="3" fill="#C7C7C7" />
    <rect x="28" width="6" height="40" rx="3" fill="#C7C7C7" />
    <rect x="35" width="6" height="40" rx="3" fill="#C7C7C7" />
    <rect x="42" width="6" height="40" rx="3" fill="#C7C7C7" />
    <rect x="49" width="6" height="40" rx="3" fill="#C7C7C7" />
    <rect x="56" width="6" height="40" rx="3" fill="#C7C7C7" />
    <rect x="63" width="6" height="40" rx="3" fill="#C7C7C7" />
    <rect x="70" width="6" height="40" rx="3" fill="#C7C7C7" />
    <rect x="77" width="6" height="40" rx="3" fill="#C7C7C7" />
    <rect x="84" width="6" height="40" rx="3" fill="#C7C7C7" />
    <rect x="91" width="6" height="40" rx="3" fill="#C7C7C7" />
    <rect x="98" width="6" height="40" rx="3" fill="#8F8F8F" />
    <rect x="105" width="6" height="40" rx="3" fill="#8F8F8F" />
    <rect x="112" width="6" height="40" rx="3" fill="#8F8F8F" />
    <rect x="119" width="6" height="40" rx="3" fill="#8F8F8F" />
    <rect x="126" width="6" height="40" rx="3" fill="#8F8F8F" />
    <rect x="133" width="6" height="40" rx="3" fill="#8F8F8F" />
    <rect x="140" width="6" height="40" rx="3" fill="#8F8F8F" />
    <rect x="147" width="6" height="40" rx="3" fill="#8F8F8F" />
    <rect x="154" width="6" height="40" rx="3" fill="#8F8F8F" />
    <rect x="161" width="6" height="40" rx="3" fill="#8F8F8F" />
    <rect x="168" width="6" height="40" rx="3" fill="#8F8F8F" />
    <rect x="175" width="6" height="40" rx="3" fill="#8F8F8F" />
    <rect x="182" width="6" height="40" rx="3" fill="#373737" />
    <rect x="189" width="6" height="40" rx="3" fill="#373737" />
    <rect x="196" width="6" height="40" rx="3" fill="#373737" />
    <rect x="203" width="6" height="40" rx="3" fill="#373737" />
    <rect x="210" width="6" height="40" rx="3" fill="#373737" />
    <rect x="217" width="6" height="40" rx="3" fill="#373737" />
    <rect x="224" width="6" height="40" rx="3" fill="#373737" />
    <rect x="231" width="6" height="40" rx="3" fill="#373737" />
    <rect x="238" width="6" height="40" rx="3" fill="#373737" />
    <rect x="245" width="6" height="40" rx="3" fill="#373737" />
    <rect x="252" width="6" height="40" rx="3" fill="#373737" />
    <rect x="259" width="6" height="40" rx="3" fill="#373737" />
    <rect x="266" width="6" height="40" rx="3" fill="#373737" />
  </g>
  <defs>
    <clipPath id="clip0_1421_4289">
      <rect width="272" height="40" fill="white" />
    </clipPath>
  </defs>
</svg>