<svg width="21" height="12" viewBox="0 0 21 12" fill="none" xmlns="http://www.w3.org/2000/svg">
<path fill-rule="evenodd" clip-rule="evenodd" d="M13.7607 10.1281C13.6567 10.225 13.5733 10.3419 13.5154 10.4717C13.4576 10.6015 13.4265 10.7417 13.424 10.8838C13.4215 11.0259 13.4476 11.167 13.5008 11.2988C13.5541 11.4306 13.6333 11.5503 13.7338 11.6508C13.8343 11.7513 13.954 11.8305 14.0858 11.8838C14.2176 11.937 14.3587 11.9631 14.5008 11.9606C14.6429 11.9581 14.7831 11.927 14.9129 11.8692C15.0427 11.8113 15.1596 11.7279 15.2565 11.6239L19.8427 7.0377L20.592 6.28979L19.8441 5.54189L15.2579 0.955649C15.0584 0.762764 14.7911 0.655959 14.5136 0.658239C14.2361 0.660519 13.9706 0.7717 13.7742 0.967838C13.5779 1.16397 13.4665 1.42937 13.464 1.70687C13.4614 1.98437 13.568 2.25177 13.7607 2.45147L16.5406 5.23143H1.8943C1.6136 5.23143 1.34441 5.34294 1.14592 5.54142C0.947443 5.7399 0.835938 6.0091 0.835938 6.28979C0.835938 6.57049 0.947443 6.83969 1.14592 7.03817C1.34441 7.23665 1.6136 7.34816 1.8943 7.34816H16.5406L13.7607 10.1281Z" fill="black"/>
</svg>
