<svg width="17" height="16" viewBox="0 0 17 16" fill="none" xmlns="http://www.w3.org/2000/svg">
<path d="M8.5 2H3.83333C3.47971 2 3.14057 2.14048 2.89052 2.39052C2.64048 2.64057 2.5 2.97971 2.5 3.33333V12.6667C2.5 13.0203 2.64048 13.3594 2.89052 13.6095C3.14057 13.8595 3.47971 14 3.83333 14H13.1667C13.5203 14 13.8594 13.8595 14.1095 13.6095C14.3595 13.3594 14.5 13.0203 14.5 12.6667V8" stroke="#234D2E" stroke-linecap="round" stroke-linejoin="round"/>
<path d="M12.7475 1.75015C13.0127 1.48493 13.3724 1.33594 13.7475 1.33594C14.1225 1.33594 14.4822 1.48493 14.7475 1.75015C15.0127 2.01537 15.1617 2.37508 15.1617 2.75015C15.1617 3.12522 15.0127 3.48493 14.7475 3.75015L8.73879 9.75948C8.58049 9.91765 8.38493 10.0334 8.17012 10.0962L6.25479 10.6562C6.19743 10.6729 6.13662 10.6739 6.07873 10.6591C6.02084 10.6442 5.96801 10.6141 5.92576 10.5719C5.8835 10.5296 5.85338 10.4768 5.83855 10.4189C5.82372 10.361 5.82473 10.3002 5.84146 10.2428L6.40146 8.32748C6.46448 8.11285 6.58048 7.91752 6.73879 7.75948L12.7475 1.75015Z" stroke="#234D2E" stroke-linecap="round" stroke-linejoin="round"/>
</svg>
