<svg width="17" height="16" viewBox="0 0 17 16" fill="none" xmlns="http://www.w3.org/2000/svg">
<path d="M8.5 2H3.83333C3.47971 2 3.14057 2.14048 2.89052 2.39052C2.64048 2.64057 2.5 2.97971 2.5 3.33333V12.6667C2.5 13.0203 2.64048 13.3594 2.89052 13.6095C3.14057 13.8595 3.47971 14 3.83333 14H13.1667C13.5203 14 13.8594 13.8595 14.1095 13.6095C14.3595 13.3594 14.5 13.0203 14.5 12.6667V8" stroke="#6A6A6A" stroke-linecap="round" stroke-linejoin="round"/>
<path d="M12.7475 1.75003C13.0127 1.48481 13.3724 1.33582 13.7475 1.33582C14.1225 1.33582 14.4822 1.48481 14.7475 1.75003C15.0127 2.01525 15.1617 2.37496 15.1617 2.75003C15.1617 3.1251 15.0127 3.48481 14.7475 3.75003L8.73879 9.75936C8.58049 9.91753 8.38493 10.0333 8.17012 10.096L6.25479 10.656C6.19743 10.6728 6.13662 10.6738 6.07873 10.6589C6.02084 10.6441 5.96801 10.614 5.92576 10.5717C5.8835 10.5295 5.85338 10.4766 5.83855 10.4188C5.82372 10.3609 5.82473 10.3001 5.84146 10.2427L6.40146 8.32736C6.46448 8.11273 6.58048 7.9174 6.73879 7.75936L12.7475 1.75003Z" stroke="#6A6A6A" stroke-linecap="round" stroke-linejoin="round"/>
</svg>
