<svg width="19" height="20" viewBox="0 0 19 20" fill="none" xmlns="http://www.w3.org/2000/svg">
<path d="M11.3152 16.0223C9.8637 16.0223 8.62114 15.6189 7.58755 14.8121C6.55446 14.0058 5.83823 12.9812 5.43884 11.7384H3.181C3.07413 11.7384 2.98457 11.7023 2.91232 11.63C2.84007 11.5578 2.80419 11.4682 2.80469 11.3613C2.80519 11.2545 2.84107 11.1652 2.91232 11.0934C2.98356 11.0217 3.07312 10.9858 3.181 10.9858H5.28832C5.23112 10.6943 5.20578 10.3621 5.2123 9.98933C5.21883 9.61654 5.24391 9.29241 5.28756 9.01696H3.18025C3.07388 9.01696 2.98457 8.98083 2.91232 8.90858C2.84057 8.83683 2.80469 8.74752 2.80469 8.64065C2.80469 8.53378 2.84057 8.44447 2.91232 8.37272C2.98407 8.30097 3.07363 8.26485 3.181 8.26434H5.46744C5.85729 7.02203 6.5665 5.99747 7.59508 5.19067C8.62365 4.38387 9.86345 3.98047 11.3145 3.98047C11.9908 3.98047 12.6348 4.07981 13.2464 4.2785C13.8581 4.47719 14.427 4.75817 14.9534 5.12143C15.0447 5.18164 15.0936 5.26142 15.1001 5.36076C15.1067 5.46011 15.0715 5.5459 14.9948 5.61816C14.918 5.69593 14.8252 5.73657 14.7163 5.74008C14.6074 5.74359 14.5088 5.71273 14.4205 5.64751C13.971 5.3565 13.484 5.13147 12.9597 4.97241C12.4354 4.81336 11.887 4.73358 11.3145 4.73308C10.0652 4.73308 9.00347 5.07251 8.12943 5.75137C7.2554 6.43022 6.63399 7.26813 6.26521 8.2651H10.8516C10.9585 8.2651 11.0478 8.30097 11.1196 8.37272C11.1913 8.44447 11.2274 8.53403 11.2279 8.6414C11.2284 8.74878 11.1923 8.83809 11.1196 8.90933C11.0468 8.98058 10.9575 9.01646 10.8516 9.01696H6.05974C5.99954 9.3175 5.97094 9.65643 5.97395 10.0337C5.97696 10.4115 6.00556 10.7289 6.05974 10.9858H10.8516C10.9585 10.9858 11.0478 11.0219 11.1196 11.0942C11.1918 11.1664 11.2279 11.2557 11.2279 11.3621C11.2279 11.469 11.1918 11.5585 11.1196 11.6308C11.0473 11.703 10.958 11.7389 10.8516 11.7384H6.25091C6.62872 12.7349 7.25489 13.5725 8.12943 14.2514C9.00397 14.9302 10.0659 15.2697 11.3152 15.2697C11.8892 15.2697 12.4396 15.1894 12.9665 15.0288C13.4933 14.8693 13.9782 14.6432 14.4213 14.3507C14.5096 14.286 14.6074 14.2551 14.7148 14.2582C14.8222 14.2612 14.9172 14.3041 15 14.3869C15.0733 14.4571 15.1067 14.5421 15.1001 14.642C15.0936 14.7418 15.0447 14.8216 14.9534 14.8813C14.4275 15.2446 13.8588 15.5256 13.2472 15.7242C12.6351 15.9229 11.9916 16.0223 11.3152 16.0223Z" fill="black"/>
</svg>
