<svg width="20" height="20" viewBox="0 0 20 20" fill="currentColor" xmlns="http://www.w3.org/2000/svg">
<path d="M6.16667 4.16667H11.1667C11.625 4.16667 12 3.79167 12 3.33333C12 2.875 11.625 2.5 11.1667 2.5H6.16667C5.25 2.5 4.5 3.25 4.5 4.16667V15.8333C4.5 16.75 5.25 17.5 6.16667 17.5H11.1667C11.625 17.5 12 17.125 12 16.6667C12 16.2083 11.625 15.8333 11.1667 15.8333H6.16667V4.16667Z" fill="currentColor"/>
<path d="M19.2083 9.70812L16.8833 7.38312C16.8254 7.32358 16.751 7.28269 16.6696 7.26568C16.5883 7.24867 16.5037 7.25631 16.4268 7.28763C16.3498 7.31896 16.284 7.37253 16.2376 7.4415C16.1913 7.51047 16.1666 7.5917 16.1667 7.67479V9.16646H10.3333C9.875 9.16646 9.5 9.54146 9.5 9.99979C9.5 10.4581 9.875 10.8331 10.3333 10.8331H16.1667V12.3248C16.1667 12.6998 16.6167 12.8831 16.875 12.6165L19.2 10.2915C19.3667 10.1331 19.3667 9.86646 19.2083 9.70812Z" fill="currentColor"/>
</svg>
