<svg width="22" height="22" viewBox="0 0 22 22" fill="currentColor" xmlns="http://www.w3.org/2000/svg">
<g clip-path="url(#clip0_1816_4409)">
<path d="M13 10.7422V21.0439L12.3125 21.3877L3.375 16.9297V5.75781L12.3125 1.28906L21.25 5.75781V13.75H19.875V7.30469L13 10.7422ZM12.3125 2.83594L9.72363 4.125L16.3945 7.49805L19.0264 6.1875L12.3125 2.83594ZM11.625 19.5078V10.7422L4.75 7.30469V16.0703L11.625 19.5078ZM5.59863 6.1875L12.3125 9.53906L14.8691 8.27148L8.1875 4.89844L5.59863 6.1875ZM17.125 19.25V17.875H24V19.25H17.125ZM17.125 15.125H24V16.5H17.125V15.125ZM14.375 22V20.625H15.75V22H14.375ZM14.375 16.5V15.125H15.75V16.5H14.375ZM14.375 19.25V17.875H15.75V19.25H14.375ZM17.125 22V20.625H24V22H17.125Z" fill="currentColor"/>
</g>
<defs>
<clipPath id="clip0_1816_4409">
<rect width="22" height="22" fill="currentColor"/>
</clipPath>
</defs>
</svg>
