<svg width="22" height="22" viewBox="0 0 22 22" fill="none" xmlns="http://www.w3.org/2000/svg">
  <path 
    d="M4.75 17.4C5.17274 16.9265 6.79688 14.3008 10.7969 14.3008C14.7969 14.3008 16.4246 16.5538 16.85 17.1904M19.6 10.8C19.6 15.6601 15.6601 19.6 10.8 19.6C5.93989 19.6 2 15.6601 2 10.8C2 5.93989 5.93989 2 10.8 2C15.6601 2 19.6 5.93989 19.6 10.8ZM13.9523 7.80063C13.9523 6.12174 12.535 4.75 10.8003 4.75C9.06558 4.75 7.64826 6.12174 7.64826 7.80063C7.64826 9.47951 9.06558 10.8513 10.8003 10.8513C12.5349 10.8513 13.9523 9.47951 13.9523 7.80063Z" 
    stroke="currentColor" 
    stroke-width="1.5" 
    fill="none"
  />
</svg>
